<?xml version="1.0" encoding="UTF-8"?>
<!DOCTYPE svg PUBLIC "-//W3C//DTD SVG 1.1//EN" "http://www.w3.org/Graphics/SVG/1.1/DTD/svg11.dtd">
<svg xmlns="http://www.w3.org/2000/svg" version="1.1" width="512px" height="512px" style="shape-rendering:geometricPrecision; text-rendering:geometricPrecision; image-rendering:optimizeQuality; fill-rule:evenodd; clip-rule:evenodd" xmlns:xlink="http://www.w3.org/1999/xlink">
<g><path style="opacity:1" fill="#51a2fa" d="M 57.5,-0.5 C 63.8333,-0.5 70.1667,-0.5 76.5,-0.5C 90.0017,3.50803 98.1684,12.508 101,26.5C 103.667,43.3564 99.1675,57.8564 87.5,70C 98.347,71.2944 108.68,74.2944 118.5,79C 127.259,84.0813 132.425,91.5813 134,101.5C 134.667,116.167 134.667,130.833 134,145.5C 129.606,152.698 124.273,153.365 118,147.5C 117.667,132.833 117.333,118.167 117,103.5C 114.787,96.9571 110.287,92.7904 103.5,91C 78.0477,83.3998 52.7144,83.7331 27.5,92C 20.7385,94.0888 16.9052,98.5888 16,105.5C 15.6667,119.5 15.3333,133.5 15,147.5C 9.83489,152.792 4.66822,152.792 -0.5,147.5C -0.5,130.833 -0.5,114.167 -0.5,97.5C 4.52453,85.3213 13.5245,77.4879 26.5,74C 32.7525,72.2828 39.0858,70.9495 45.5,70C 32.373,55.3757 28.5396,38.5424 34,19.5C 38.6418,8.94969 46.4752,2.28303 57.5,-0.5 Z"/></g>
<g><path style="opacity:1" fill="#51a2fa" d="M 434.5,-0.5 C 440.833,-0.5 447.167,-0.5 453.5,-0.5C 473.674,6.46746 482.174,20.8008 479,42.5C 477.558,53.2164 473.058,62.3831 465.5,70C 481.814,70.9126 495.647,77.0793 507,88.5C 508.546,91.5919 510.046,94.5919 511.5,97.5C 511.5,114.167 511.5,130.833 511.5,147.5C 506.332,152.792 501.165,152.792 496,147.5C 495.667,133.5 495.333,119.5 495,105.5C 494.095,98.5888 490.262,94.0888 483.5,92C 458.286,83.7331 432.952,83.3998 407.5,91C 400.713,92.7904 396.213,96.9571 394,103.5C 393.667,117.833 393.333,132.167 393,146.5C 390.459,151.069 386.625,152.569 381.5,151C 379.185,149.891 377.685,148.057 377,145.5C 376.333,130.833 376.333,116.167 377,101.5C 380.759,87.0744 389.925,77.9077 404.5,74C 410.752,72.2828 417.086,70.9495 423.5,70C 411.833,57.8564 407.333,43.3564 410,26.5C 412.832,12.508 420.998,3.50803 434.5,-0.5 Z"/></g>
<g><path style="opacity:1" fill="#95c7fa" d="M 60.5,15.5 C 78.6183,14.1181 86.785,22.4514 85,40.5C 84.0314,49.7773 79.5314,56.6106 71.5,61C 65.9058,62.3816 60.9058,61.3816 56.5,58C 48.9643,48.786 46.4643,38.286 49,26.5C 51.4373,21.2262 55.2706,17.5595 60.5,15.5 Z"/></g>
<g><path style="opacity:1" fill="#95c7fa" d="M 438.5,15.5 C 460.046,15.1885 467.546,25.5219 461,46.5C 457.052,60.1383 448.552,64.305 435.5,59C 426.359,48.9167 423.859,37.4167 428,24.5C 430.489,20.1675 433.989,17.1675 438.5,15.5 Z"/></g>
<g><path style="opacity:1" fill="#51a2fa" d="M 272.5,55.5 C 301.502,55.3334 330.502,55.5 359.5,56C 367.5,61.3333 367.5,66.6667 359.5,72C 330.105,72.0237 300.772,72.6904 271.5,74C 266.961,76.8868 264.461,81.0534 264,86.5C 263.667,100.5 263.333,114.5 263,128.5C 258,133.833 253,133.833 248,128.5C 247.333,111.833 247.333,95.1667 248,78.5C 251.861,66.1356 260.028,58.4689 272.5,55.5 Z"/></g>
<g><path style="opacity:1" fill="#51a1fa" d="M 64.5,140.5 C 68.8394,139.846 72.6727,140.846 76,143.5C 76.3333,144.5 76.6667,145.5 77,146.5C 77.3333,174.833 77.6667,203.167 78,231.5C 79.9268,236.428 83.4268,239.594 88.5,241C 103.5,241.333 118.5,241.667 133.5,242C 139.619,246.6 139.952,251.6 134.5,257C 118.592,258.636 102.592,258.969 86.5,258C 72.8995,255.734 64.3995,247.901 61,234.5C 60.3333,204.833 60.3333,175.167 61,145.5C 61.9973,143.677 63.1639,142.01 64.5,140.5 Z"/></g>
<g><path style="opacity:1" fill="#51a2fa" d="M 241.5,145.5 C 250.839,145.334 260.173,145.5 269.5,146C 273.156,151.128 276.156,156.628 278.5,162.5C 286.789,164.763 294.622,168.096 302,172.5C 307.632,168.62 313.799,166.787 320.5,167C 327,172.167 332.833,178 338,184.5C 338.667,187.167 338.667,189.833 338,192.5C 336.497,196.172 334.997,199.838 333.5,203.5C 337.482,211.138 340.649,219.138 343,227.5C 347.542,229.186 352.042,231.019 356.5,233C 358.049,234.214 359.215,235.714 360,237.5C 360.913,246.576 360.58,255.576 359,264.5C 354.052,267.928 348.719,270.594 343,272.5C 340.977,280.236 337.977,287.569 334,294.5C 333.333,295.833 333.333,297.167 334,298.5C 337.612,303.662 338.946,309.329 338,315.5C 332.136,321.699 325.969,327.532 319.5,333C 317.833,333.667 316.167,333.667 314.5,333C 310.167,331.167 305.833,329.333 301.5,327.5C 294.214,331.641 286.547,334.975 278.5,337.5C 276.051,342.005 273.884,346.671 272,351.5C 271.097,352.701 269.931,353.535 268.5,354C 259.833,354.667 251.167,354.667 242.5,354C 241.069,353.535 239.903,352.701 239,351.5C 237.116,346.671 234.949,342.005 232.5,337.5C 224.453,334.975 216.786,331.641 209.5,327.5C 205.167,329.333 200.833,331.167 196.5,333C 194.029,333.706 191.695,333.373 189.5,332C 184,326.5 178.5,321 173,315.5C 172.333,312.833 172.333,310.167 173,307.5C 174.503,303.828 176.003,300.162 177.5,296.5C 173.505,288.842 170.339,280.842 168,272.5C 163.597,270.476 159.097,268.642 154.5,267C 152.951,265.786 151.785,264.286 151,262.5C 150.333,254.167 150.333,245.833 151,237.5C 151.785,235.714 152.951,234.214 154.5,233C 158.958,231.019 163.458,229.186 168,227.5C 170.029,219.742 173.029,212.408 177,205.5C 176.592,200.983 175.259,196.649 173,192.5C 172.183,189.036 172.517,185.702 174,182.5C 179.198,176.967 184.698,171.8 190.5,167C 197.161,166.9 203.328,168.733 209,172.5C 216.378,168.096 224.211,164.763 232.5,162.5C 234.939,156.498 237.939,150.831 241.5,145.5 Z M 247.5,213.5 C 275.855,212.029 290.688,225.363 292,253.5C 289.34,268.817 280.84,279.317 266.5,285C 243.666,289.67 228.166,281.17 220,259.5C 216.623,236.578 225.789,221.245 247.5,213.5 Z"/></g>
<g><path style="opacity:1" fill="#95c7fa" d="M 250.5,161.5 C 253.518,161.335 256.518,161.502 259.5,162C 261.607,167.341 264.274,172.341 267.5,177C 277.993,179.082 287.66,183.082 296.5,189C 299.167,189.667 301.833,189.667 304.5,189C 308.027,187.049 311.693,185.715 315.5,185C 317.557,186.719 319.224,188.719 320.5,191C 317.523,196.241 316.023,201.741 316,207.5C 322.259,217.018 326.592,227.352 329,238.5C 332.855,242.012 337.355,244.345 342.5,245.5C 343.484,248.428 343.817,251.428 343.5,254.5C 337.441,255.446 332.274,258.113 328,262.5C 325.956,273.303 321.956,283.303 316,292.5C 316.023,298.222 317.523,303.556 320.5,308.5C 319.26,312.594 316.593,314.428 312.5,314C 309.382,312.941 306.382,311.608 303.5,310C 301.833,309.333 300.167,309.333 298.5,310C 289.012,316.241 278.679,320.574 267.5,323C 263.945,327.27 261.279,332.104 259.5,337.5C 256.833,338.833 254.167,338.833 251.5,337.5C 250.046,331.947 247.379,327.114 243.5,323C 232.145,320.996 221.812,316.663 212.5,310C 207.532,310.098 202.865,311.432 198.5,314C 194.407,314.428 191.74,312.594 190.5,308.5C 193.477,303.556 194.977,298.222 195,292.5C 189.039,283.285 185.039,273.285 183,262.5C 178.886,258.621 174.053,255.954 168.5,254.5C 167.167,251.5 167.167,248.5 168.5,245.5C 171.966,243.511 175.632,242.011 179.5,241C 180.333,240.167 181.167,239.333 182,238.5C 184.011,227.116 188.345,216.782 195,207.5C 195.377,202.145 194.044,197.145 191,192.5C 191.293,188.997 193.126,186.331 196.5,184.5C 201.591,188.391 207.258,189.891 213.5,189C 222.393,183.254 232.06,179.254 242.5,177C 243.931,176.535 245.097,175.701 246,174.5C 248.079,170.347 249.579,166.014 250.5,161.5 Z M 247.5,213.5 C 225.789,221.245 216.623,236.578 220,259.5C 228.166,281.17 243.666,289.67 266.5,285C 280.84,279.317 289.34,268.817 292,253.5C 290.688,225.363 275.855,212.029 247.5,213.5 Z"/></g>
<g><path style="opacity:1" fill="#51a2fa" d="M 248.5,196.5 C 274.616,195.3 293.449,206.3 305,229.5C 312.752,253.325 307.586,273.825 289.5,291C 266.794,307.612 244.128,307.612 221.5,291C 205.098,275.909 199.265,257.409 204,235.5C 211.596,214.061 226.429,201.061 248.5,196.5 Z M 247.5,213.5 C 225.789,221.245 216.623,236.578 220,259.5C 228.166,281.17 243.666,289.67 266.5,285C 280.84,279.317 289.34,268.817 292,253.5C 290.688,225.363 275.855,212.029 247.5,213.5 Z"/></g>
<g><path style="opacity:1" fill="#51a2fa" d="M 377.5,241.5 C 394.17,241.333 410.837,241.5 427.5,242C 440.446,245.279 448.279,253.446 451,266.5C 451.667,291.5 451.667,316.5 451,341.5C 450.215,343.286 449.049,344.786 447.5,346C 444.5,346.667 441.5,346.667 438.5,346C 436.951,344.786 435.785,343.286 435,341.5C 434.667,317.167 434.333,292.833 434,268.5C 432.167,264 429,260.833 424.5,259C 409.167,258.667 393.833,258.333 378.5,258C 370.837,252.867 370.504,247.367 377.5,241.5 Z"/></g>
<g><path style="opacity:1" fill="#51a2fa" d="M 129.5,511.5 C 126.833,511.5 124.167,511.5 121.5,511.5C 120.542,510.038 119.376,508.705 118,507.5C 117.667,492.833 117.333,478.167 117,463.5C 114.091,457.268 109.258,453.102 102.5,451C 75.2909,442.682 48.6243,444.015 22.5,455C 18.6749,457.488 16.5082,460.988 16,465.5C 15.6667,479.5 15.3333,493.5 15,507.5C 14.3103,509.35 13.1436,510.684 11.5,511.5C 8.83333,511.5 6.16667,511.5 3.5,511.5C 1.83333,510.5 0.5,509.167 -0.5,507.5C -0.5,490.833 -0.5,474.167 -0.5,457.5C 4.91522,445.254 14.2486,437.421 27.5,434C 33.5,432.667 39.5,431.333 45.5,430C 31.6343,414.653 28.1343,397.153 35,377.5C 44.0041,362.599 57.1708,356.766 74.5,360C 89.7893,362.956 98.6226,372.122 101,387.5C 103.258,403.649 99.0913,417.815 88.5,430C 99.3911,431.639 109.724,434.972 119.5,440C 125.831,443.998 130.331,449.498 133,456.5C 134.59,472.788 134.923,489.121 134,505.5C 133.401,508.254 131.901,510.254 129.5,511.5 Z"/></g>
<g><path style="opacity:1" fill="#51a2fa" d="M 511.5,457.5 C 511.5,474.167 511.5,490.833 511.5,507.5C 510.5,509.167 509.167,510.5 507.5,511.5C 504.833,511.5 502.167,511.5 499.5,511.5C 497.856,510.684 496.69,509.35 496,507.5C 495.667,493.5 495.333,479.5 495,465.5C 494.492,460.988 492.325,457.488 488.5,455C 462.364,444.103 435.697,442.77 408.5,451C 401.742,453.102 396.909,457.268 394,463.5C 393.667,478.167 393.333,492.833 393,507.5C 391.624,508.705 390.458,510.038 389.5,511.5C 386.833,511.5 384.167,511.5 381.5,511.5C 379.099,510.254 377.599,508.254 377,505.5C 376.077,489.121 376.41,472.788 378,456.5C 383.337,444.403 392.503,436.903 405.5,434C 411.201,432.793 416.868,431.46 422.5,430C 409.909,415.128 406.409,398.295 412,379.5C 416.598,368.606 424.764,362.106 436.5,360C 456.91,356.613 470.743,364.446 478,383.5C 482.169,401.315 478.002,416.815 465.5,430C 476.763,431.482 487.43,434.815 497.5,440C 504.218,444.311 508.885,450.144 511.5,457.5 Z"/></g>
<g><path style="opacity:1" fill="#51a1fa" d="M 251.5,367.5 C 254.187,367.336 256.854,367.503 259.5,368C 261.333,368.5 262.5,369.667 263,371.5C 263.667,388.167 263.667,404.833 263,421.5C 259.022,434.736 250.189,442.236 236.5,444C 208.5,444.667 180.5,444.667 152.5,444C 146.189,441.412 144.356,436.912 147,430.5C 147.903,429.299 149.069,428.465 150.5,428C 178.5,427.667 206.5,427.333 234.5,427C 241.789,425.379 245.955,420.879 247,413.5C 247.333,399.5 247.667,385.5 248,371.5C 248.69,369.65 249.856,368.316 251.5,367.5 Z"/></g>
<g><path style="opacity:1" fill="#95c7fa" d="M 62.5,375.5 C 77.0333,374.371 84.7,381.037 85.5,395.5C 85.4873,405.355 81.8206,413.522 74.5,420C 66.4023,424.319 59.5689,422.819 54,415.5C 48.3268,405.808 46.9935,395.475 50,384.5C 52.9168,379.637 57.0835,376.637 62.5,375.5 Z"/></g>
<g><path style="opacity:1" fill="#95c7fa" d="M 439.5,375.5 C 445.521,374.965 451.187,376.132 456.5,379C 459.25,381.67 461.083,384.836 462,388.5C 463.836,398.187 462.17,407.187 457,415.5C 447.988,425.12 439.322,424.786 431,414.5C 424.664,404.15 423.998,393.483 429,382.5C 431.998,379.262 435.498,376.929 439.5,375.5 Z"/></g>
</svg>
